/* XPM */
static char * C_xpm[] = {
"50 50 96 2",
"  	c None",
". 	c #FCBB12",
"+ 	c #FBC51C",
"@ 	c #FDBD0B",
"# 	c #FAD34E",
"$ 	c #FBE07E",
"% 	c #F7D156",
"& 	c #99A229",
"* 	c #CFBC37",
"= 	c #B89E2D",
"- 	c #FEBA05",
"; 	c #FEB302",
"> 	c #F7AF11",
", 	c #FBCC34",
"' 	c #FDC00D",
") 	c #FEA402",
"! 	c #5A7614",
"~ 	c #567812",
"{ 	c #3C560E",
"] 	c #6BA414",
"^ 	c #A2BC37",
"/ 	c #FE9B03",
"( 	c #FEAB02",
"_ 	c #FE8405",
": 	c #C64C06",
"< 	c #525812",
"[ 	c #8AB125",
"} 	c #E45105",
"| 	c #FCC113",
"1 	c #FBD147",
"2 	c #FAD658",
"3 	c #F6E1BE",
"4 	c #F4C04F",
"5 	c #FBC826",
"6 	c #FBD656",
"7 	c #FCEBAB",
"8 	c #FBE284",
"9 	c #FCE9A2",
"0 	c #FDEEB7",
"a 	c #FBC622",
"b 	c #F99C0C",
"c 	c #FCEDB2",
"d 	c #FBCA2B",
"e 	c #FCF5D6",
"f 	c #FCEBA9",
"g 	c #FCF3CC",
"h 	c #FE9404",
"i 	c #EEB627",
"j 	c #FCF8E6",
"k 	c #FBCE3A",
"l 	c #FBDE76",
"m 	c #FCF6DC",
"n 	c #FBF9E8",
"o 	c #FCF6DA",
"p 	c #F1DCB1",
"q 	c #FE8C04",
"r 	c #F2CDA8",
"s 	c #FDF1C2",
"t 	c #FCF9E8",
"u 	c #FC7C07",
"v 	c #FA970E",
"w 	c #FBDA69",
"x 	c #E39351",
"y 	c #FC7808",
"z 	c #E87C2B",
"A 	c #F66B08",
"B 	c #F7A42A",
"C 	c #F86E08",
"D 	c #F26307",
"E 	c #FA7408",
"F 	c #E95606",
"G 	c #F05F07",
"H 	c #EEBE94",
"I 	c #F56708",
"J 	c #E14F04",
"K 	c #D84705",
"L 	c #CB3E04",
"M 	c #C53B05",
"N 	c #ED5B06",
"O 	c #D44404",
"P 	c #AD3C12",
"Q 	c #B55B3D",
"R 	c #DC4B05",
"S 	c #BB3604",
"T 	c #B13405",
"U 	c #FA7607",
"V 	c #AA3305",
"W 	c #AB431F",
"X 	c #E8853E",
"Y 	c #C79787",
"Z 	c #F27E21",
"` 	c #EE9E32",
" .	c #EDB373",
"..	c #EFB72E",
"+.	c #F19F2F",
"@.	c #EFD3A1",
"                                                                                                    ",
"                                                                                                    ",
"                                                                                                    ",
"                                                                                                    ",
"                                    . + @ + + # $ % & * = - ; >                                     ",
"                                - @ - , ' ; ; ) + ! ~ { ] ^ / / ) ) )                               ",
"                            ; ; - ; . - ; @ - ; ( _ : < [ } ; ( ( ( ( ) /                           ",
"                          ; ; , - | - - - ' 1 ; ( 2 ' - - ' - - - ; ( ( ) ) 3                       ",
"                      4 ; - ; ; ; - - @ 5 6 7 8 + 9 0 a 8 2 , 2 ' - + ( ) ) / b                     ",
"                    - - ; ( ; ; ; - @ 5 + , c d + # e f g 6 + ' - - ; ; ( ( ) / h                   ",
"                  i ( ; ( ; @ ; ; , ' j , + d k l | m n o @ a n - - ; ; ; ) / / h h                 ",
"                p ( ( ( ( ( ; ; ; @ | l , 2 + # i f n 8 n + i d , ( - | ( ) ) / h q r               ",
"                ( ( ( ( ( ( ; ; ' @ @ ' ; 0 c + o + + j n s ' , @ d ; ; ( ( ) / h h q               ",
"              ) ) ( ( ; ; ; ; ; - + ' - 1 @ 6 7 ' | $ + t k + - 6 ; - ; ( ( ) / / / h u             ",
"            v ) ( ( ( ; ; ; ( ; - @ - d + - @ + | ' - ; w k ' - ; | ) ( ( ) / / / / q _ x           ",
"            h ( ( ( ; ) ; ; + ; @ ; - ; ' ' - - + d , | - ' ' - ' - ) ( ( ) ) h h h h q y           ",
"          h ) ) ( @ ( ( ( ; ; ; ; ; ' - ; ' @ | ' - ' @ ; ; - ' ; ; ; ( ( ) / ) h / q y u z         ",
"          h / ) ; ) ; ( ; ; ( ( ( ; ; - - - ' + | 5 a l + + + ; ( ; ) ) ( ) / ) q q _ q u A         ",
"        B h ) ) ; ) ( ( @ ; ( ; - ; ; ; - - ; a + - @ ; ' - ' ; ( ( ) ; q ) ) / h q _ q u C         ",
"        h / ) ) ( ) ) ( ; ( ( ( ( ; ; ; ; - | - ( - - - - - ( - ; ( ( ; ( ) / / q q q _ _ C D       ",
"        q / / ) / ) ( ( ( ( ( ( ( ; ; ( ( ( - ; + + @ - ; ; a ( ( | ; ( h ) h h h q q _ _ E F       ",
"        q / ) / ) - ) ( ) ( ( ) ( ( ; ; ; ; ; - ; ; ; ; ; ; ( - ( ( ( ( ) / / h h _ E _ _ E G       ",
"      _ q h / / / ( ) ( ( ) ) ( ) ( ( ( ( ; ) ) ; ( ; ; | ; ; ; ' @ ) ) / / q _ q q _ _ E E F H     ",
"      E _ h h ) / ) ) / ( ) ) ( ) ) ( / ; ( ; ( ; ; ; - | - ; ( ; ) / ) / ) h h q q y _ y C } F     ",
"      A _ q h ) ) ) / ( h ) ) ) ) / ( ( ( ; ( ( ( ( ( ; ; / ; ) ) ) ) / ) q / _ _ q _ _ y I } J     ",
"      D _ h h h / / / / / ) ; / ( ) ) ) ( ( ( ) ( ( ; ( ( ( ( ( ( ( ) h / h h q q _ y _ C I F K     ",
"      D _ _ q / h ) ) / ) / / / ) ) ) ( ) ) ( ) ( ( ; ( ) ( ( ) ) / ) _ / h q q h u u y y I F L     ",
"      F E q q h / / / h / h ( ) / ) ) ) / ) ( ) ) ) ( ) ) q ) ) ) h h / / h h _ _ _ _ y A D J M     ",
"      } A _ u q q h / ) / / h / ) ) ) ) / ) h h / / ( ) ) ) / ) ) / h h q _ q q q u y E A N O P     ",
"      O A E q h q h h / / _ / / ) / / ) h ) / / _ _ ) h ) / ) / / / / q q q u _ q y E E D } M       ",
"      Q } A _ _ q h q h h / q / h / / / / / ) h h h ) _ / h / h / / h _ q q q u u E D A D R S       ",
"        O D E _ q h h q q / / h q _ h h h / / / / h ) h q / q h h q q _ _ _ u u C E D G F O T       ",
"        L F A A q q q q q h h q q h h q _ / / h / / h / h / h q h _ _ q y u u y U I A F K S V       ",
"        } O G E u u u _ q q h q q q q h _ q h _ h q q h q h _ q y _ _ y u y y E I I N } L V         ",
"          R } G A y _ _ u q _ _ h q q q q _ u q _ q _ q q q _ q _ u _ y y y A A A N F K S V         ",
"          G } } A E E _ _ y u q q _ q _ q q E q E _ u _ _ _ _ _ y _ _ y y E C A D F J L T W         ",
"            F } F D A y E y y _ _ _ _ _ q u y u _ E u _ _ q _ _ u u y U U I U N N } L T V           ",
"            X D } F N A E E u u _ u _ u _ y u U _ _ u u _ y u u y y y U A I G N } R M T Y           ",
"              A G J N I I C E E y C u _ y y _ y y E u y E u y y y U U A A I F N R L S L             ",
"                A G F F G A C E E C y u E _ u u u y y y y E y E A A I I I F } R O L O               ",
"                  E D N N D A A C y E y C u y y u E u E E E E E A A I G F F R R L R                 ",
"                    A A D N D I A C C y C E E E y E E A A E A A A I G N } R } } N                   ",
"                      Z E E I D A C U A C y C C E C C A C C A A I D N F F F D D                     ",
"                          y y E E C U E U E U E I A C C I I A D I I I A A E y                       ",
"                            ` u y y _ E y y u y E E E E y A A A A E E E y                           ",
"                                B q q q h q q _ q q q _ _ y u _ _ _ u                               ",
"                                      ) / / ) / / / h / h q q q  .                                  ",
"                                              ..) / +.@.                                            ",
"                                                                                                    ",
"                                                                                                    "};
