/* XPM */
static char *_a4647d57dbc4c08b95abf9813317c11kER36FCMQIc2JUrH[] = {
/* columns rows colors chars-per-pixel */
"50 50 140 2 ",
"   c None",
".  c #351C0D",
"X  c #391E0D",
"o  c #351F11",
"O  c #372112",
"+  c #3B2514",
"@  c #492E0E",
"#  c #4B2715",
"$  c #462C16",
"%  c #4F2A14",
"&  c #442B1B",
"*  c #4E2E18",
"=  c #512C16",
"-  c #532F19",
";  c #56321B",
":  c #5A351D",
">  c #5D391F",
",  c #5A3721",
"<  c #573921",
"1  c #5D3B22",
"2  c #5D3F28",
"3  c #613C22",
"4  c #5E4027",
"5  c #5F4128",
"6  c #634126",
"7  c #65452A",
"8  c #69462C",
"9  c #67482B",
"0  c #6B4B2D",
"q  c #624A35",
"w  c #6C4D31",
"e  c #654F3C",
"r  c #684F39",
"t  c #6E5234",
"y  c #66523F",
"u  c #6C543D",
"i  c #715536",
"p  c #755837",
"a  c #735738",
"s  c #755A3B",
"d  c #795E3E",
"f  c #7B603F",
"g  c #675340",
"h  c #695642",
"j  c #6C5A46",
"k  c #6D5C49",
"l  c #715B45",
"z  c #7A5F40",
"x  c #715E49",
"c  c #7D6342",
"v  c #7F6243",
"b  c #7E6343",
"n  c #7F6343",
"m  c #7D6141",
"M  c #7F6441",
"N  c #7C6144",
"B  c #7E6344",
"V  c #7F6444",
"C  c #7F6544",
"Z  c #7F6545",
"A  c #7C6140",
"S  c #74624D",
"D  c #766550",
"F  c #796752",
"G  c #7C6A55",
"H  c #7D6D5A",
"J  c #806544",
"K  c #806545",
"L  c #816645",
"P  c #806546",
"I  c #806646",
"U  c #826646",
"Y  c #826746",
"T  c #816747",
"R  c #826846",
"E  c #816847",
"W  c #806548",
"Q  c #806648",
"!  c #816648",
"~  c #81674A",
"^  c #836849",
"/  c #82684B",
"(  c #83694B",
")  c #846949",
"_  c #856A49",
"`  c #84694B",
"'  c #856B4B",
"]  c #866A4A",
"[  c #866B4B",
"{  c #876B4B",
"}  c #876C4B",
"|  c #836A4C",
" . c #846A4C",
".. c #856B4C",
"X. c #876B4C",
"o. c #866C4C",
"O. c #866D4D",
"+. c #876D4D",
"@. c #876E4F",
"#. c #836A4A",
"$. c #886C4C",
"%. c #886E4C",
"&. c #896E4D",
"*. c #896F4E",
"=. c #896F4F",
"-. c #8A704F",
";. c #8B714F",
":. c #876E50",
">. c #876F50",
",. c #886E50",
"<. c #816E59",
"1. c #897050",
"2. c #8A7050",
"3. c #8B7251",
"4. c #8B7253",
"5. c #8C7253",
"6. c #8D7453",
"7. c #8C7154",
"8. c #8C7354",
"9. c #8E7554",
"0. c #8E7654",
"q. c #8E7656",
"w. c #83715C",
"e. c #907756",
"r. c #917859",
"t. c #91785A",
"y. c #937B5B",
"u. c #947D5D",
"i. c #947D5E",
"p. c #857664",
"a. c #887460",
"s. c #8A7662",
"d. c #857865",
"f. c #897964",
"g. c #8B7D6B",
"h. c #967F60",
"j. c #998162",
"k. c #9A8365",
"l. c #9A8466",
"z. c #928574",
/* pixels */
"                                        3 6 3 5 5 < 7 7 5 5 &                                       ",
"                                2 2 1 2 &.&.*.[ v 3 _ [ ^ ^ c ; < < +                               ",
"                            5 9 9.9.} 6 ;.;.;.$.f 3 $.$.} } B 1 s s t , +                           ",
"                        : 1 1.1.9.e.-.8 j.j.u.y.-.6 u.u.y.y.} 1 z s z s t * +                       ",
"                      7 m 3 e.k.k.k.e.6 d d d f M 3 f f f f d 6 1.8.8.:.a 3 w O                     ",
"                    7 +.U 8 r.d -.L m 6 m m p d f 6 p f v f s 6 0 w L B ] 6 w 0 +                   ",
"                  7 ] =.,.3 p d } C d 6 m m f p f 8 d f m m d 9 0 Z z c s 0 | i w O                 ",
"                  0 $.e.p 8 s $.L C d 0 m m m m f 8 f m m M d 0 Z c z z s 0 B Z w +                 ",
"                2 z ,.d p 6 d $.J J m 0 z d z J d 8 d M M M p 0 c d c z s w f c Z w O               ",
"                w ,.d s p 8 U J J J m 0 J J z z f 0 M f f f M 0 v z d c s w f f B B +               ",
"              2 v ,.s s p 0 J J J J m 0 d z J d M 0 M M M M f 0 c d v d d t d f z / 7 O             ",
"              8 [ s s s p 0 z J J J J 0 z z z z f 0 M M M M M 0 c z f v d i c d d v L +             ",
"              0 | s s s p w J J J J d 0 J d d z M 0 U M M M p 0 z J d z s i d d f v Z +             ",
"              3 s s s p p w J J d 0 d t z z z J f 0 U M M M m w s 8 z z d i f d d d a X             ",
"              : > > 3 > 3 3 6 8 w s.8 w m d d m f 0 U M M m d 8 w a.7 3 3 3 3 3 1 > : X             ",
"              1 F G <.<.<.w.w.w.w.w.7.8 d m d m M 0 U m m M d 0 g.<.<.<.<.G G G G F x X             ",
"              1 l l S D D G G G <.F <.<.8 z z z z w U J d d w h.G G G F S S S S l l u X             ",
"              > j z S N D F G G <.<.x 3 z s s z z 0 U d J f s 1 F F F D k A S S x u u X             ",
"              ; - - ; ; ; ; ; ; 3 z > t z z z z z w U J z J z 3 1 S ; ; ; - - - - = = X             ",
"              ; 6 6 6 6 6 > 9 0 8 > 0 t z z s z z 0 ^ J J z z w 7 ; 9 9 9 9 9 9 9 7 6 @             ",
"              : p a a a t 6 z s s 0 t t z z z z f 0 _ L z J d 0 s q f s s t p p p i 0 &             ",
"              : p i a a t 9 c z z s w t s z z z d 0 _ f J d d 0 A s f f z t a p i p w #             ",
"              : a a a s p w c z z s 0 t d z s z d w } f m f d w A A f A s t p u i u t $             ",
"              : a a a p t 0 z s z s 0 t d s s z d w [ f m m s i A A s A s t a p i p t $             ",
"              ; a a a a i 0 A s z s s w s z s d d w ] z v f d i c s d s s t a t a a w $             ",
"              : i a a a i w c s s s a i z s s s s 0 ^ d d v d t c s s f s t i i t t w $             ",
"              ; i a i a i 0 v s s s a w s s p 1 3 3 3 7 f f d i c s s c s w a i a t w $             ",
"              ; a i a a i 0 c p s p a w s i 7 f.f.f.f.<.6 d s t c s d s s t t i t t w &             ",
"              ; i a a i i t z s a a a w s i 3 S F F F l 3 f d t z s s s a 0 t t u t 0 &             ",
"              ; a i i a i t s a a a i t s i 2 S j : S j 3 p d t z s s s a 0 u t i i 0 &             ",
"              ; i a i a i w z i i i i t s t : l u ; k u : p p t z s s s a 7 w t t t 0 @             ",
"              - i i a i i w z i a i i w p t ; u u u u r ; p p 0 c s s s p 9 t t t w w @             ",
"              - i i i i i w d i t 7 t w p a 7 % = = = ; 9 s a w s 7 s s i 9 t t t w 0 @             ",
"              = > : > > 1 > 1 3 7 w.3 w s p t 9 7 : 7 0 a p a 0 q <.3 3 3 > : : , : ; X             ",
"              ; S S G F G <.<.w.w.G <.3 u p p p t 7 s p a a i 9 f.F <.H F D F S F S l .             ",
"              ; h l l x x D D F F D H H 6 i u p t 7 p p a a 9 d.D S D x S k l S k h w o             ",
"              - u u x k x S D D D D S : t a a a t 7 p i a p 0 > D S S S k k k l l u r .             ",
"              = - = = % - = - = , l - 7 a a t a t 9 p u a i t 4 , h = = = = * % = = = .             ",
"              = > 6 6 6 6 : 7 8 7 ; 7 7 a a i i t 7 i i i t t 5 7 - 6 6 6 4 6 6 3 3 > .             ",
"              - w t t t 0 1 t t t 7 w 7 a t i i t 4 i t t i t 5 i 8 s s i 6 0 0 w 0 7 .             ",
"              - t t t t 0 6 t t i r t 7 a i t a t < t t t t t 5 s s s s t 7 w w w w 7 o             ",
"              - t t t t 0 6 t t i r t 3 i i i i t : t u t t t 7 s s s a a 2 w w w w 7 .             ",
"              % ; : : 1 1 1 2 1 < , < < ; ; ; - % % ; ; : : < : , , , , : ; ; ; - * # X             ",
"              - S j S S S S S S D D D D D D F H D < H H G F D S D D S S D x x x k x h X             ",
"              < d.H p.p.d.d.d.d.H g.g.g.g.g.g.z.p.< z.z.z.g.g.g.p.p.p.p.p.p.p.p.p.p.F .             ",
"              ; h h g g h h h h k k k k k k k k k ; D k k k k k k k j h j h g g g g q .             ",
"              * g g y y g g g h k g h k k k k k k ; D j k k k j k j j h g g e e e e q .             ",
"              * e g y y h h h h g h k h k k k k k ; S k k j k k j h j h h h h g e e q .             ",
"              - e e y h h h h h j j j j j j j k k ; D k k k k j j j j h h h h g g e q .             ",
"              # % = % = % % % % % % % % * * = * = # % % * % = = * # = # # = % % = % # .             "
};
