/* XPM */
static char * P_xpm[] = {
"50 50 183 2",
"  	c None",
". 	c #8C908B",
"+ 	c #979A77",
"@ 	c #7E8662",
"# 	c #9DA197",
"$ 	c #99A67A",
"% 	c #A9A687",
"& 	c #B4B688",
"* 	c #A3AA7A",
"= 	c #7B7774",
"- 	c #B9B4A8",
"; 	c #ACA48C",
"> 	c #B5AA93",
", 	c #968C73",
"' 	c #888767",
") 	c #968878",
"! 	c #9C947C",
"~ 	c #969283",
"{ 	c #A9A598",
"] 	c #9B958B",
"^ 	c #8A8373",
"/ 	c #6D7453",
"( 	c #9B9896",
"_ 	c #A89A97",
": 	c #B4ABA2",
"< 	c #A08F85",
"[ 	c #8B7D6B",
"} 	c #8D836A",
"| 	c #7B6C54",
"1 	c #645D4A",
"2 	c #5C5443",
"3 	c #6D5346",
"4 	c #75645A",
"5 	c #766C67",
"6 	c #B9AB97",
"7 	c #65624C",
"8 	c #B9B3B7",
"9 	c #C3BAB1",
"0 	c #7C725B",
"a 	c #756B5A",
"b 	c #54463B",
"c 	c #5B4D3A",
"d 	c #443F43",
"e 	c #5B524B",
"f 	c #857C74",
"g 	c #696746",
"h 	c #968D88",
"i 	c #857568",
"j 	c #736A54",
"k 	c #6A5C4B",
"l 	c #554A45",
"m 	c #473B36",
"n 	c #382D27",
"o 	c #61554C",
"p 	c #938D83",
"q 	c #5E6451",
"r 	c #A39C93",
"s 	c #896D61",
"t 	c #726553",
"u 	c #433525",
"v 	c #7B875A",
"w 	c #AEB895",
"x 	c #C7BBA8",
"y 	c #827564",
"z 	c #665C56",
"A 	c #D1CDB3",
"B 	c #EAE5D0",
"C 	c #A68C72",
"D 	c #857D69",
"E 	c #686457",
"F 	c #D6C9B4",
"G 	c #BBB498",
"H 	c #725A4D",
"I 	c #464334",
"J 	c #494629",
"K 	c #5A643B",
"L 	c #37351E",
"M 	c #2E2409",
"N 	c #82745C",
"O 	c #998D73",
"P 	c #A59988",
"Q 	c #7D7463",
"R 	c #534D4B",
"S 	c #595754",
"T 	c #4D4A3B",
"U 	c #8A7C63",
"V 	c #645B43",
"W 	c #4E4A36",
"X 	c #161609",
"Y 	c #5C533C",
"Z 	c #A59A83",
"` 	c #9C9382",
" .	c #6A6866",
"..	c #898785",
"+.	c #635E62",
"@.	c #4D4947",
"#.	c #2B2514",
"$.	c #332B1C",
"%.	c #B4A38B",
"&.	c #534D3B",
"*.	c #9A8C6B",
"=.	c #AB9C84",
"-.	c #A8A7A6",
";.	c #5D5A5A",
">.	c #796C5A",
",.	c #837A63",
"'.	c #767554",
").	c #958668",
"!.	c #7A766C",
"~.	c #A19FA2",
"{.	c #625542",
"].	c #97966B",
"^.	c #9C9373",
"/.	c #A89879",
"(.	c #78694A",
"_.	c #AAA27D",
":.	c #B1A185",
"<.	c #A3947C",
"[.	c #CDCABA",
"}.	c #D5CDC2",
"|.	c #6C624B",
"1.	c #63593A",
"2.	c #88785B",
"3.	c #6B5C45",
"4.	c #B5AB8A",
"5.	c #AD9779",
"6.	c #3C3939",
"7.	c #85865C",
"8.	c #DBD4C7",
"9.	c #97938B",
"0.	c #241F18",
"a.	c #4E504E",
"b.	c #888677",
"c.	c #62543C",
"d.	c #523E26",
"e.	c #71754A",
"f.	c #A2A675",
"g.	c #A48B6E",
"h.	c #E6DED2",
"i.	c #58553A",
"j.	c #55472C",
"k.	c #5B4C34",
"l.	c #49391D",
"m.	c #8E705A",
"n.	c #4A3B29",
"o.	c #957E63",
"p.	c #52432D",
"q.	c #72644C",
"r.	c #554A34",
"s.	c #544533",
"t.	c #D3BDA5",
"u.	c #E2DBC8",
"v.	c #3D423A",
"w.	c #3C3529",
"x.	c #C4B39B",
"y.	c #D3C2AB",
"z.	c #2C2822",
"A.	c #292918",
"B.	c #4C4533",
"C.	c #33352C",
"D.	c #8D965F",
"E.	c #B49D86",
"F.	c #ABB673",
"G.	c #A49B7C",
"H.	c #080B01",
"I.	c #6C6351",
"J.	c #C7B49A",
"K.	c #2C2C1C",
"L.	c #211D0E",
"M.	c #595645",
"N.	c #C4AE95",
"O.	c #D4C0A7",
"P.	c #353323",
"Q.	c #B8AA8E",
"R.	c #3A3424",
"S.	c #433D2D",
"T.	c #4C432C",
"U.	c #262215",
"V.	c #A4A37B",
"W.	c #2B251C",
"X.	c #3D3B2A",
"Y.	c #33291C",
"Z.	c #332B23",
"                                                                                                    ",
"                                                                                                    ",
"                                                                                                    ",
"                                                                                                    ",
"                                                                                                    ",
"                                  .     +                                                           ",
"                                  @ . # $ % & * % % % % % % % % +     @                             ",
"                                # = # - ; > ; , ' , ) ! ~ ~ % { > ] ^ /                             ",
"                                ( _ _ : < [ } | 1 2 3 4 4 5 ) _ : 6 ^ 7 / @                         ",
"                                8 9 _ < ^ 0 a 3 2 b c d e 4 f f ) _ { ^ g @                         ",
"                                h _ _ f i j k l b m n m l o 4 i p f ) ^ q                           ",
"                                _ _ r ) s k t k e u n d o l o 5 ) 5 ~ % v                           ",
"                              w x < [ < [ 4 4 o 3 d d e o l o y z 3 r A                             ",
"                              A B _ y C ! D 4 b d e e m d o z y E t > A   @                         ",
"                              $ F G ) [ ) i H o m z z d I l 1 j 2 k ' g J K                         ",
"                            g L M N , O P Q l d R 5 5 S l T T 2 U V W X X v                         ",
"                            G Y M , Z ` Q E e S  .. .. .+.@.d R H H H #.$.'                         ",
"                            %.s %.G ! ) ^ z S =  .h ( .. .+.@.l 4 3 [ 4 &./                         ",
"                          ' *.=.%.Z , ` <  .z ..-.8 8 . = +.;.z H 4 >.>.,.'.                        ",
"                          ).O 6 Z P Z ~ ] !.= ( -.8 8 ~.( ..5  .5 i {.2 ,.Q v /                     ",
"                        ].^./.%.> > 6 { 9 _ ~.~.~.~.8 ~.-.~.. ( ` y j >.7 (.].g                     ",
"                        ]._.:.<.<.P x [.}.: h ( ~.~.... ..= = h ] !.a Q |.1.2.3.                    ",
"                        + 4.:.5.! < x }._  .R = +. .+. .+.6.6.d ` ^ 1 3.j 1.1.(.1.7.                ",
"                    * ].^.:.C C ) < 9 8.9.@.0.a.+.+.a.a.d 0.0.+.# b.a V c.c.1.1.d.e.                ",
"                    f.7.g./.g.*.[ ` 9 h.h z  ...+.d d a.+.a.a.+.# b.i.&.j.k.j.j.J l.'.              ",
"                    ).'.2.).2.m.| i 6 h.r 5 = ( ..d d ;.= +.;.+.# b.i.W d.J d.j.k.n.Y               ",
"                    m.(.2.o.o.).4 y > h.: = b.( ..+.a.+.= 5 +.+.-.b.&.J l.l.l.p.j.p.J               ",
"                  ).q.3 m.N (.(.o.! - h.9 p ... +.+.;.a. .= = f - ~ Y r.d.l.l.d.u s.J W             ",
"                ].N k.m.m.g.g.g.Z > [.h.[.{ ( ~  .q a.a.;.f f f - p 2 Y j.j.d.d.u u n.s.            ",
"                f.N 1.m.*.5.f._.6 t.u.u.}.: # ..E a.v.@.+.p ..h { ~ |.k 1.c.p.d.d.n w.&.            ",
"                7.3.3 s g.5._._.x.y.u.u.8.-.{ .. .6.z.@.5 ~ p r _ { 2.N (.1.c.s.b w.u &.            ",
"                ).(.s g.C C ^.*.G x F u.u.: { . !.v.A.S = p b.{ { - + ).| 3.c.c d.m W B.J           ",
"              + *.m.m.o.g.m.).5.4.> F B u.{ -.-...q C. .. ( 9.9.6 ~ + ' ,.| | 3.k.d.p.j.J           ",
"              ^.2.).o.o.o.o.D.g.4.; G u.[.9 # # . q a.. ( ( 9.] { ~ D Q V k 3.3.c.s.c.1.j.J g       ",
"              ].*.g.5.g.g.7.g.5.% ; G u.[.- # # . q v. .= @ !.b.b.D 0 Q {.c.c.c.3.c.c.g 1.i.e.      ",
"              + _.E.E.5.5.g.g.F.G.+ x - w = q a.v.z.H.X A.C.T q 7 1 / I.q.r.k.c.q.q.|.1.g 1.0       ",
"            & _.5.J.J.5.5.5.g.).G.^.; ` ~ q K.H.H.H.H.H.H.L.v.B.7 M.|.2 V p.c 3.|.2.' j i.W g       ",
"            & 4.E.J.t.J.N.E.g.2.} <.; { + b.I C.z.C.K.A.L v.K W 7 / 7 7 c Y c q.N U } U j j.i.      ",
"            & & N.J.O.F F N.G.).| O { ` b.b.M.M.v.v.A.A.v.v.i.J T E I.7 &.2 {.0 , , ).} 2.V 1.      ",
"            :.4.N.O.F O.O.J.% *.} ! ; '.!.a I K.K.A.A.A.L M v.J P.&.7 B.c b t [ ) =.` U / c.Y       ",
"            _.G N.N.y.y.y.J.Q.=.<.> i 1 j M.I P.L L K.K.K.K.R.S.L R.&.&.B.1 Q [ ^ Z Z O ,.Y j.g     ",
"            _.:./.N.y.y.y.x N.Q.6 ! q.|.1 &.T.w.L K.A.U.#.A.L w.P.P.S.T &.o >.D [ , } ,.N c.T.i.    ",
"          V.G.; 5.J.y.x x.x.G Q.Z N | [ I.W T.#.L A.L.L.U.#.K.P.w.R.w.W 2 2 1 a 4 Q >.t q.Y T.J     ",
"          /.E.Q.6 x x Q.; %.%.<.[ N ,.0 c B.T L $.U.L.L.U.U.W.W.C.X.R.S.2 Y Y 1 k >.>.q.{.r.T.j.g   ",
"        + 5.%.N.%.> ; ! <.:.<.).| ,.N V s.T.u $.K.#.L.0.W.W.0.W.U.P.R.w.W 2 2 1 1 a 0 t {.s.s.k.j.i.",
"        :.G.%.Q.E.Z ! + Z =.^.U U N j Y c s.#.#.Y.#.#.W.z.z.z.W.U.P.w.w.I l M.1 I.t a t 3.c.k.s.c.H ",
"        ; E.E.E.%.P ! ! Z <.*.o.O 0 3.r.s.T.$.n.Y.0.W.Y.z.z.z.Z.Z.w.S.S.m &.2 &.1 1 I.t k {.s.d.d.c.",
"      G.; E.E.E.; Z ^., , ).).).| 3.t {.s.r.u u Y.Y.Y.Z.Z.z.Z.n w.$.w.B.I &.2 2 &.c k 4 k c d.n.s.c ",
"    + ^./.Q.J.N.=.) Z ).U U } N |.j |.g {.r.s.u u $.R.n Y.W.Z.$.P.X.X.I P.W &.&.1 2 I.a Y c s.s.s.b ",
"  G.G.G.<.:.N.N.=.O <.} ,.,.2.| |.(.|.|.c.r.b n.n.u u S.n Z.w.Z.P.X.X.S.P.W &.r.|.&.I.t c c r.B.s.s."};
