/* XPM */
static char *_43861631a8a4c9ffe02a085752ef11eDKdXlNb2RADJaR1i[] = {
/* columns rows colors chars-per-pixel */
"50 50 244 2 ",
"   c #080B01",
".  c #161609",
"X  c #211D0E",
"o  c #241F18",
"O  c #262215",
"+  c #2B2514",
"@  c #2B251C",
"#  c #2C2C1C",
"$  c #292918",
"%  c #332B1C",
"&  c #33291C",
"*  c #37351E",
"=  c #2E2409",
"-  c #2C2822",
";  c #332B23",
":  c #382D27",
">  c #353323",
",  c #3A3424",
"<  c #3C3529",
"1  c #3D3B2A",
"2  c #33352C",
"3  c #3C3939",
"4  c #32312B",
"5  c #49391D",
"6  c #433525",
"7  c #433D2D",
"8  c #4A3B29",
"9  c #523E26",
"0  c #473B36",
"q  c #3D423A",
"w  c #4C432C",
"e  c #494629",
"r  c #52432D",
"t  c #55472C",
"y  c #4C4533",
"u  c #4E4A36",
"i  c #4D4A3B",
"p  c #464334",
"a  c #544533",
"s  c #554A34",
"d  c #5B4C34",
"f  c #534D3B",
"g  c #5B4D3A",
"h  c #54463B",
"j  c #5C533C",
"k  c #58553A",
"l  c #62543C",
"z  c #63593A",
"x  c #5A643B",
"c  c #443F43",
"v  c #4D4947",
"b  c #534D4B",
"n  c #554A45",
"m  c #5C5443",
"M  c #5B524B",
"N  c #595645",
"B  c #5D5A5A",
"V  c #595754",
"C  c #4E504E",
"Z  c #625542",
"A  c #645B43",
"S  c #6B5C45",
"D  c #61554C",
"F  c #645D4A",
"G  c #6A5C4B",
"H  c #6D5346",
"J  c #665C56",
"K  c #725A4D",
"L  c #5E6451",
"P  c #65624C",
"I  c #6C624B",
"U  c #696746",
"Y  c #72644C",
"T  c #78694A",
"R  c #6C6351",
"E  c #686457",
"W  c #726553",
"Q  c #736A54",
"!  c #7B6C54",
"~  c #756B5A",
"^  c #796C5A",
"/  c #75645A",
"(  c #6D7453",
")  c #7C725B",
"_  c #767554",
"`  c #71754A",
"'  c #635E62",
"]  c #6A6866",
"[  c #766C67",
"{  c #7D7463",
"}  c #7A766C",
"|  c #7B7774",
" . c #82745C",
".. c #88785B",
"X. c #8E705A",
"o. c #827564",
"O. c #837A63",
"+. c #8A7C63",
"@. c #857D69",
"#. c #8B7D6B",
"$. c #857568",
"%. c #957E63",
"&. c #857C74",
"*. c #896D61",
"=. c #7B875A",
"-. c #7E8662",
";. c #85865C",
":. c #8D965F",
">. c #8DAD5E",
",. c #8BB75D",
"<. c #93B45E",
"1. c #92AF5F",
"2. c #8D836A",
"3. c #888767",
"4. c #9A8C6B",
"5. c #958668",
"6. c #8B9B6C",
"7. c #899669",
"8. c #97966B",
"9. c #8A8373",
"0. c #888677",
"q. c #968C73",
"w. c #998D73",
"e. c #968878",
"r. c #8D9A74",
"t. c #9C9373",
"y. c #9C947C",
"u. c #979A77",
"i. c #A48B6E",
"p. c #A68C72",
"a. c #A3947C",
"s. c #A49B7C",
"d. c #A89879",
"f. c #AD9779",
"g. c #8EAD63",
"h. c #8EA76B",
"j. c #92AE65",
"k. c #93AD6C",
"l. c #96A56C",
"z. c #8EB364",
"x. c #8EB767",
"c. c #93B365",
"v. c #94BB64",
"b. c #99BD66",
"n. c #94B46B",
"m. c #99B66D",
"M. c #95BA6C",
"N. c #99BB6C",
"B. c #98B767",
"V. c #8EA372",
"C. c #92A573",
"Z. c #9CA475",
"A. c #95AC73",
"S. c #9AAC74",
"D. c #9CAC7B",
"F. c #99A67A",
"G. c #95B472",
"H. c #9AB474",
"J. c #96BB71",
"K. c #9BBC73",
"L. c #9BB47B",
"P. c #9DBB7A",
"I. c #96B37B",
"U. c #A4A37B",
"Y. c #AAA27D",
"T. c #A3AA7A",
"R. c #A2A675",
"E. c #A2B47B",
"W. c #A2BC7B",
"Q. c #A8B976",
"!. c #ABB673",
"~. c #9DC75E",
"^. c #A1C95E",
"/. c #9DC36B",
"(. c #99C366",
"). c #9EC374",
"_. c #9CC07B",
"`. c #A3CA64",
"'. c #A2C36C",
"]. c #A5CA6C",
"[. c #A6C868",
"{. c #A2C374",
"}. c #A9C573",
"|. c #A6CA73",
" X c #A4C47B",
".X c #A9C57D",
"XX c #A9C979",
"oX c #ABD071",
"OX c #898785",
"+X c #938D83",
"@X c #968D88",
"#X c #969283",
"$X c #9C9382",
"%X c #9B958B",
"&X c #97938B",
"*X c #9B9896",
"=X c #8C908B",
"-X c #A59A83",
";X c #AB9C84",
":X c #A59988",
">X c #B49D86",
",X c #A39C93",
"<X c #A89A97",
"1X c #A08F85",
"2X c #9BA783",
"3X c #9DB481",
"4X c #9DA197",
"5X c #A4AB82",
"6X c #ACA48C",
"7X c #A9A687",
"8X c #B1A185",
"9X c #B4A38B",
"0X c #B8AA8E",
"qX c #B5AB8A",
"wX c #A3B785",
"eX c #B4B688",
"rX c #A9A598",
"tX c #B5AA93",
"yX c #B9AB97",
"uX c #BBB498",
"iX c #AEB895",
"pX c #A19FA2",
"aX c #A8A7A6",
"sX c #B4ABA2",
"dX c #B9B4A8",
"fX c #B9B3B7",
"gX c #C4AE95",
"hX c #C4B39B",
"jX c #C7B49A",
"kX c #C7BBA8",
"lX c #D3BDA5",
"zX c #C3BAB1",
"xX c #A9C485",
"cX c #B4C897",
"vX c #D3C2AB",
"bX c #D4C0A7",
"nX c #CDCABA",
"mX c #D6C9B4",
"MX c #D1CDB3",
"NX c #D5CDC2",
"BX c #DBD4C7",
"VX c #E2DBC8",
"CX c #E6DED2",
"ZX c #EAE5D0",
/* pixels */
"M.x.x.g.g.h.n.J.n.K.K.M.M.x.x.x.(.=.~.(.,.(.M.x._.M.x.x.v./.~.,.<.(.v.x.(.(.(.(.M.(.M.N.B.<.1.1.1.1.",
"M.G.k.g.g.x.n.G.m.K.K.M.M.M.x.x.(.x.(.,.z.v.x.J._.P.P.J.K.b.(.<.v.v.(.v.(.x.v.x.M.M.N.b.B.c.j.1.1.g.",
"M.M.x.x.n.n.m.K.K.K.).M.M.M.J.M.-.(.(.(.m.N.c.K.J.P.P.P.m.B.v.B.c.c.c.M.x.v.M.M./.M.K.N.B.c.1.>.>.g.",
"J.M.x.x.n.n.n.K.K.K.K.K.J.M.J.J.xXI.3XJ.K.H.h.H.L.3X3XP.E.m.Q.m.n.j.n.n.J.M._.).J.J./.N.B.B.<.1.>.>.",
"M.M.z.z.c.n.M.n.m.m.N.K.J.G.J.I.xX3X3XA.A.A.h.A.D.D.3X3XS.S.Z.l.I.S.S.S.J._.P.K.).K.N.N.N.B.<.1.>.>.",
"M.M.z.z.c.n.M.n.n.n.M.G.G.x.J.L.3X=XF.C.u.F.F.T.5X5X2X2X5XF.Z.u.r.C.C.V.I.wXwXP._.K.N.m.m.v.<.c.>.>.",
"M.v.z.z.c.B.B.n.n.n.x.J.n.G.G.3X2X-.=X4XF.7XeXT.7X7X7X7X7X7X7X7Xu.u.7.-.6.wXxXxX XK.K.M.N.N.c.1.z.z.",
"M.n.c.z.v.M.B.n.n.x.k.G.G.k.I.3X4X| 4XdX6XtX6Xq.3.q.e.y.#X#X7XrXtX%X9.( =.2XxXwXwX).K.M.m.b.c.<.c.g.",
"M.M.c.v.B.v.n.M.c.M.n.G.P.I.A.3X*X<X<XsX1X#.2.! F m H / / [ e.<XsXyX9.P ( -.cXI.W.K.n.M.n.B.c.>.c.c.",
"b.b.v.c.v.M.b.N.m.K.K.H.G.A.h.2XfXzX<X1X9.) ~ H m h g c M / &.&.e.<XrX9.U -.wX3XL.G.M.n.n.B.c.j.c.c.",
"/.b.b.b.(.(././.N.W.H.G.I.I.V.r.@X<X<X&.$.Q G n h 0 : 0 n D / $.+X&.e.9.L r.C.A.G.n.n.n.B.B.c.c.j.c.",
"'.'.b./././.).).{.K.G.G.3XV.6.r.<X<X,Xe.*.G W G M 6 : c D n D [ e.[ #X7X=.6.C.I.k.k.G.M.n.c.c.j.c.z.",
"'.'././.'.'.)./.|.).H.G.C.6.V.iXkX1X#.1X#./ / D H c c M D n D o.J H ,XMXiX6.V.h.G.G.J.M.B.c.j.j.g.c.",
"'.'./.'././././.).K.P.W.A.6.3XMXZX<Xo.p.y.@./ h c M M 0 c D J o.E W tXMXcX-.G.I.G.M.J.x.n.c.k.j.g.g.",
"'.'./.'././././.M.{.W.P.L.C.r.F.mXuXe.#.e.$.K D 0 J J c p n F Q m G 3.U e x =.J.G.G.x.x.n.k.j.g.g.g.",
"'./.N.'.]./.(.M.M.).K.H.3Xr.U * =  .q.w.:X{ n c b [ [ V n i i m +.A u . . =.6.I.G.x.x.h.n.k.j.g.g.g.",
"{.{.}.'.Q.b.v.v.(.,.M. XA.iXuXj = q.-X$X{ E M V ] =XOX] ' v c b K K K + % 3.F.3Xh.x.x.k.n.c.j.j.>.>.",
"XX{.}.}.[.'.(.v.(.(.x.K.T.T.9X*.9XuXy.e.9.J V | ] @X*XOX] ' v n / H #./ f ( r.A.A.G.n.x.c.B.m.j.g.g.",
"|.|.}.}.}.[.N.(.,.x.z.h.l.3.4.;X9X-Xq.$X1X] J OXaXfXfX=X| ' B J K / ^ ^ O._ ( 6.A.S.H.n.B.n.m.m.j.g.",
"|.|.}.].[.}.`.`.(.(.c.g.l.5.w.yX-X:X-X#X%X} | *XaXfXfXpX*XOX[ ] [ $.Z m O.{ =.( 6.k.m.k.j.n.m.K.n.k.",
"].|.].].oX[.[.[.(.(.G.k.8.t.d.9XtXtXyXrXzX<XpXpXpXpXfXpXaXpX=X*X$Xo.Q ^ P T 8.U ;.l.H.m.j.j.M.J.G.G.",
"`.`.`.`.`.[.[.`.).c.Q.l.8.Y.8Xa.a.:XkXnXNXsX@X*XpXpXOX=XOX| | @X%X} ~ { I z ..S _ 7.T.H.k.c.n.J.K.G.",
"(.~.`.`.`.`.`.[.}.}.Q.Z.u.qX8Xf.y.1XkXNX<X] b | ' ] ' ] ' 3 3 c $X9.F S Q z z T z ;.l.S.k.n.K.J.K.P.",
"~.~.~.^.^.^.`.'.}.Q.T.8.t.8Xp.p.e.1XzXBX&Xv o C ' ' C C c o o ' 4X0.~ A l l z z 9 ` 8.l.A.m.K.)._.P.",
"~.~.~.^.^.`.`.[.!.eXR.;.i.d.i.4.#.$XzXCX@XJ ] OX' c c C ' C C ' 4X0.k f t d t t e 5 _ 5XA.K.xXJ.{.{.",
"`.`.^.(.^.~.b.b.!.!.5._ ..5...X.! $.yXCX,X[ | *XOXc c B | ' B ' 4X0.k u 9 e 9 t d 8 j 7.wX X XXX).{.",
"'.].`.`.`.^.[.!.!.8.X.T ..%.%.5./ o.tXCXsX| 0.*XOX' C ' | [ ' ' aX0.f e 5 5 5 r t r e ( D.wXK.XX{.'.",
"}.|.|.].oXoXoX!.!.5.Y H X. .T T %.y.dXCXzX+XOX=X' ' B C ] | | &.dX#Xj s 9 5 5 9 6 a e u ;.E.Q.}.{.{.",
".XXX|.|.oXoXoX!.8. .d X.X.i.i.i.-XtXnXCXnXrX*X#X] L C C B &.&.&.dX+Xm j t t 9 9 6 6 8 a U :.}.K. XXX",
"xXxX|.|.}.}..X!.R. .z X.4.f.R.Y.yXlXVXVXNXsX4XOXE C q v ' +XOX@XrX#XI G z l r 9 9 : < f x =.m.Q..X.X",
"xXxX{.{.{.}.!.!.;.S H *.i.f.Y.Y.hXvXVXVXBXaXrXOX] 3 - v [ #X+X,X<XrX.. .T z l a h < 6 f x ` :.Q..X.X",
"xXwX).).{.Q.Q.T.5.T *.i.p.p.t.4.uXkXmXVXVXsXrX=X} q $ V | +X0.rXrXdXu.5.! S l g 9 0 u y e U :.Q.{. X",
".X.XxX XK.W.E.u.4.X.X.%.i.X.5.f.qXtXmXZXVXrXaXaXOXL 2 ] =X*X&X&XyX#Xu.3.O.! ! S d 9 r t e x ;.Q.m.b.",
"{.XXXXxXP.E.T.t...5.%.%.%.%.:.i.qX6XuXVXnXzX4X4X=XL C =X*X*X&X%XrX#X@.{ A G S S l a l z t e U Z.n.v.",
").K._. XW.E.R.8.4.i.f.i.i.;.i.f.7X6XuXVXnXdX4X4X=XL q ] | -.} 0.0.@.) { Z l l l S l l U z k ` 6.x.z.",
"K.). X_.L.E.T.u.Y.>X>Xf.f.i.i.!.s.u.kXdXiX| L C q -   . $ 2 i L P F ( R Y s d l Y Y I z U z ) 6.M._.",
"|.W.{.P.L.E.eXY.f.jXjXf.f.f.i.5.s.t.6X$X#XL #             X q y P N I m A r g S I ..3.Q k u U h.I._.",
"|.{.Q.W.T.E.eXqX>XjXlXjXgX>Xi...2.a.6XrXu.0.p 2 - 2 # $ * q x u P ( P P g j g Y  .+.2.+.Q t k 7.I.3X",
".X{..XW.S.R.eXeXgXjXbXmXmXgXs.5.! w.rX$X0.0.N N q q $ $ q q k e i E R P f m Z ) q.q.5.2...A z =.V.3X",
".X XxXW.S.R.8XqXgXbXmXbXbXjX7X4.2.y.6X_ } ~ p # # $ $ $ * = q e > f P y g h W #.e.;X$X+.( l j ( 6.A.",
" XQ.W.Q.R.u.Y.uXgXgXvXvXvXjX0X;Xa.tX$.F Q N p > * * # # # # , 7 * , f f y F { #.9.-X-Xw.O.j t U 7.L.",
"{.K.L.E.T.R.Y.8Xd.gXvXvXvXkXgX0XyXy.Y I F f w < * # $ O + $ * < > > 7 i f D ^ @.#.q.2.O. .l w k =.h.",
"P.G.S.T.Y.U.s.6Xf.jXvXkXhXhXuX0X-X .! #.R u w + * $ X X O + # > < , < u m m F ~ / { ^ W Y j w e ` =.",
"L.G.l.Z.R.d.>X0XyXkXkX0X6X9X9Xa.#. .O.) g y i * % O X X O O @ @ 2 1 , 7 m j j F G ^ ^ Y Z s w t U _ ",
"L.I.A.F.u.f.9XgX9XtX6Xy.a.8Xa.5.! O. .A a w 6 % # + X o @ @ o @ O > , < u m m F F ~ ) W Z a a d t k ",
"3XL.T.5X8Xs.9X0X>X-Xy.u.-X;Xt.+.+. .Q j g a + + & + + @ - - - @ O > < < p n N F R W ~ W S l d a l K ",
"I.3X5X5X6X>X>X>X9X:Xy.y.-Xa.4.%.w.) S s a w % 8 & o @ & - - - ; ; < 7 7 0 f m f F F R W G Z a 9 9 l ",
"3X3XF.s.6X>X>X>X6X-Xt.q.q.5.5.5.! S W Z a s 6 6 & & & ; ; - ; : < % < y p f m m f g G / G g 9 8 a g ",
"5XF.u.t.d.0XjXgX;Xe.-X5.+.+.2. .I Q I U Z s a 6 6 % , : & @ ; % > 1 1 p > u f f F m R ~ j g a a a h ",
"5Xs.s.s.a.8XgXgX;Xw.a.2.O.O...! I T I I l s h 8 8 6 6 7 : ; < ; > 1 1 7 > u f s I f R W g g s y a a "
};
